# xmcd
#
# Track frame offsets:
#	150
#	14835
#	33090
#	50945
#	70417
#	86267
#	104102
#	121135
#	138112
#	159202
#	173887
#	192142
#	209995
#	229467
#	245317
#	263152
#	280185
#	297162
#
# Disc length: 4243 seconds
#
# Revision: 0
# Processed by: cddbd v1.5.2PL0 Copyright (c) Steve Scherf et al.
# Submitted via: audiograbber 1.83.01
#
DISCID=0e109112
DTITLE=Various Artist - CHM0310
DYEAR=2003
DGENRE=Country
TTITLE0=Alan Jackson and Buffet - It's Five O'Clock Somewhere vocal
TTITLE1=Martina McBride - This One's For The Girls vocal
TTITLE2=Gary Allan - Tough Little Boys vocal
TTITLE3=Rodney Atkins - Honesty (Write Me A l;ist) vocal
TTITLE4=Chris Cagle - Chicks Dig It vocal
TTITLE5=Rascal Flatts - I Melt vocal
TTITLE6=Keith Urban - Who Wouldn't Wanna Be Me vocal
TTITLE7=Ashley Gearing - Can You Hear Me When I Talk To You vocal
TTITLE8=Sherrie Austin - Steets Of Heaven vocal
TTITLE9=Alan Jackson and Buffet - It's Five O'Clock Somewhere
TTITLE10=Martina McBride - This One's For The Girls1
TTITLE11=Gary Allan - Tough Little Boys
TTITLE12=Rodney Atkins - Honesty (Write Me A List)
TTITLE13=Chris Cagle - Chicks Dig It
TTITLE14=Rascal Flatts - I Melt
TTITLE15=Keith Urban - Who Wouldn't Wanna Be Me
TTITLE16=Ashley Gearing - Can You Hear Me When I Talk To You
TTITLE17=Sherrie Austin - Streets Of Heaven
EXTD=
EXTT0=
EXTT1=
EXTT2=
EXTT3=
EXTT4=
EXTT5=
EXTT6=
EXTT7=
EXTT8=
EXTT9=
EXTT10=
EXTT11=
EXTT12=
EXTT13=
EXTT14=
EXTT15=
EXTT16=
EXTT17=
PLAYORDER=
